<?xml version="1.0" encoding="utf-8"?>
<!-- Generator: Adobe Illustrator 18.0.0, SVG Export Plug-In . SVG Version: 6.00 Build 0)  -->
<!DOCTYPE svg PUBLIC "-//W3C//DTD SVG 1.1//EN" "http://www.w3.org/Graphics/SVG/1.1/DTD/svg11.dtd">
<svg version="1.1" id="Layer_1" xmlns="http://www.w3.org/2000/svg" xmlns:xlink="http://www.w3.org/1999/xlink" x="0px" y="0px"
	 viewBox="0 0 29.54 30" style="enable-background:new 0 0 29.54 30;" xml:space="preserve">
<style type="text/css">
	.st0{fill-rule:evenodd;clip-rule:evenodd;}
</style>
<path class="st0" d="M0,6.03V2.29c2.77-1.31,8.34-2.2,14.76-2.2s12,0.89,14.76,2.2v3.74V30H0V6.03z M4.72,17.33
	c-0.25,0-0.71,0.47-0.98,1.33c-0.3,0.96-0.13,1.6,0.05,1.66l4.03,1.22l4.59-1.56L4.72,17.33C4.72,17.33,4.72,17.33,4.72,17.33z
	 M13.06,3.31c0.01,1.41-0.51,2.96-1.64,4.95c-0.28,0.5-0.57,0.97-0.86,1.42c-1.28,2.06-2.39,3.85-1.98,7.24l5.1,1.75
	c-0.76-1.06-1.55-3.11,0.23-6.06c0.68-1.12,1.23-1.96,1.67-2.63c0.96-1.46,1.33-2.03,1.33-2.93C16.92,7.07,16.11,5.2,13.06,3.31z
	 M18.16,8.75c-0.22,0.53-0.62,1.29-1.36,2.32l-0.22,0.31c-1.31,1.81-3.49,4.81-0.97,7.38l5.33-1.82c0.06-0.31,0.1-0.61,0.11-0.89
	C21.2,13.52,20.28,11.7,18.16,8.75z M24.98,26.74l0.16,0.05c0.13,0,0.47-0.33,0.68-0.99c0.23-0.72,0.09-1.18,0-1.21l-4.14-1.42
	l-4.28,1.28L24.98,26.74z M3.69,25.76c0.21,0.66,0.55,0.99,0.68,0.99c0,0,0.01,0,0.01,0l0.35-0.1l21.02-6.3
	c0.17-0.06,0.35-0.69,0.05-1.66c-0.27-0.86-0.73-1.33-0.95-1.33L3.7,24.55C3.6,24.58,3.47,25.04,3.69,25.76z"/>
</svg>
